<svg width="41" height="40" viewBox="0 0 41 40" fill="none" xmlns="http://www.w3.org/2000/svg">
<path fill-rule="evenodd" clip-rule="evenodd" d="M5.33408 23.4171C7.522 21.2292 10.4895 20 13.5837 20C16.6779 20 19.6453 21.2292 21.8332 23.4171C24.0212 25.605 25.2503 28.5725 25.2503 31.6667C25.2503 32.5871 24.5041 33.3333 23.5837 33.3333C22.6632 33.3333 21.917 32.5871 21.917 31.6667C21.917 29.4565 21.039 27.3369 19.4762 25.7741C17.9134 24.2113 15.7938 23.3333 13.5837 23.3333C11.3735 23.3333 9.25391 24.2113 7.6911 25.7741C6.1283 27.3369 5.25033 29.4565 5.25033 31.6667C5.25033 32.5871 4.50413 33.3333 3.58366 33.3333C2.66318 33.3333 1.91699 32.5871 1.91699 31.6667C1.91699 28.5725 3.14616 25.605 5.33408 23.4171Z" fill="white"/>
<path fill-rule="evenodd" clip-rule="evenodd" d="M13.5833 9.99996C10.8219 9.99996 8.58333 12.2385 8.58333 15C8.58333 17.7614 10.8219 20 13.5833 20C16.3448 20 18.5833 17.7614 18.5833 15C18.5833 12.2385 16.3448 9.99996 13.5833 9.99996ZM5.25 15C5.25 10.3976 8.98096 6.66663 13.5833 6.66663C18.1857 6.66663 21.9167 10.3976 21.9167 15C21.9167 19.6023 18.1857 23.3333 13.5833 23.3333C8.98096 23.3333 5.25 19.6023 5.25 15Z" fill="white"/>
<path fill-rule="evenodd" clip-rule="evenodd" d="M25.25 8.33329C25.25 7.41282 25.9962 6.66663 26.9167 6.66663C29.1268 6.66663 31.2464 7.5446 32.8092 9.1074C34.372 10.6702 35.25 12.7898 35.25 15C35.25 17.2101 34.372 19.3297 32.8092 20.8925C32.6556 21.0461 32.4966 21.1931 32.3327 21.3333C33.3678 21.8758 34.3247 22.5755 35.1662 23.417C37.3542 25.605 38.5833 28.5724 38.5833 31.6666C38.5833 32.5871 37.8371 33.3333 36.9167 33.3333C35.9962 33.3333 35.25 32.5871 35.25 31.6666C35.25 29.4565 34.372 27.3369 32.8092 25.7741C31.2464 24.2113 29.1268 23.3333 26.9167 23.3333C25.9962 23.3333 25.25 22.5871 25.25 21.6666C25.25 20.7462 25.9962 20 26.9167 20C28.2427 20 29.5145 19.4732 30.4522 18.5355C31.3899 17.5978 31.9167 16.326 31.9167 15C31.9167 13.6739 31.3899 12.4021 30.4522 11.4644C29.5145 10.5267 28.2427 9.99996 26.9167 9.99996C25.9962 9.99996 25.25 9.25377 25.25 8.33329Z" fill="white"/>
</svg>
