<svg width="35" height="32" viewBox="0 0 35 32" fill="none" xmlns="http://www.w3.org/2000/svg">
<path fill-rule="evenodd" clip-rule="evenodd" d="M16.605 1.61424C17.1316 1.23975 17.869 1.23975 18.3957 1.61424L31.5207 10.9476C31.8759 11.2002 32.0837 11.5886 32.0837 12V26.6667C32.0837 27.7276 31.6227 28.745 30.8023 29.4951C29.9818 30.2453 28.869 30.6667 27.7087 30.6667H7.29199C6.13167 30.6667 5.01887 30.2453 4.1984 29.4951C3.37793 28.745 2.91699 27.7276 2.91699 26.6667V12C2.91699 11.5886 3.12477 11.2002 3.48 10.9476L16.605 1.61424ZM5.83366 12.6522V26.6667C5.83366 27.0203 5.9873 27.3595 6.26079 27.6095C6.53429 27.8596 6.90522 28 7.29199 28H27.7087C28.0954 28 28.4664 27.8596 28.7399 27.6095C29.0133 27.3595 29.167 27.0203 29.167 26.6667V12.6522L17.5003 4.35586L5.83366 12.6522Z" fill="white"/>
<path fill-rule="evenodd" clip-rule="evenodd" d="M11.667 16C11.667 15.2636 12.3199 14.6666 13.1253 14.6666H21.8753C22.6807 14.6666 23.3337 15.2636 23.3337 16V29.3333C23.3337 30.0697 22.6807 30.6666 21.8753 30.6666C21.0699 30.6666 20.417 30.0697 20.417 29.3333V17.3333H14.5837V29.3333C14.5837 30.0697 13.9307 30.6666 13.1253 30.6666C12.3199 30.6666 11.667 30.0697 11.667 29.3333V16Z" fill="white"/>
</svg>
