<svg width="519" height="128" viewBox="0 0 519 128" fill="none" xmlns="http://www.w3.org/2000/svg">
<path d="M477.42 117.572C474.658 117.572 472.42 115.333 472.42 112.572V54.3209C472.42 51.5594 474.658 49.3209 477.42 49.3209H482.203C484.965 49.3209 487.203 51.5594 487.203 54.3209V61.0101C487.203 61.1067 487.282 61.1851 487.378 61.1851V61.1851C487.458 61.1851 487.527 61.1315 487.548 61.0551C488.628 57.1214 490.575 54.0634 493.389 51.881C496.276 49.6747 499.719 48.5715 503.719 48.5715C504.124 48.5715 504.513 48.581 504.888 48.6C507.032 48.7084 508.42 50.642 508.42 52.789V57.1327C508.42 60.0487 505.212 62.434 502.296 62.434V62.434C497.801 62.434 494.255 63.8285 491.657 66.6177C489.1 69.3652 487.822 73.1534 487.822 77.9824V112.572C487.822 115.333 485.583 117.572 482.822 117.572H477.42Z" fill="white"/>
<path d="M411.355 56.826C406.84 56.826 403.071 58.3631 400.047 61.4372C398.182 63.3078 396.829 65.5391 395.988 68.131C395.095 70.8833 397.469 73.3758 400.362 73.3758H422.029C424.855 73.3758 427.209 70.9964 426.457 68.2715C425.716 65.5866 424.43 63.2875 422.6 61.374C419.701 58.342 415.952 56.826 411.355 56.826ZM425.658 97.3025C426.903 95.516 428.739 94.0315 430.916 94.0315H435.962C439.029 94.0315 441.419 96.8115 440.224 99.6364C438.573 103.54 435.846 106.873 432.044 109.634C426.535 113.592 419.825 115.572 411.914 115.572C401.89 115.572 393.958 112.413 388.118 106.096C382.319 99.7797 379.42 91.189 379.42 80.3242C379.42 69.4594 382.299 60.7845 388.056 54.2993C393.855 47.8141 401.621 44.5715 411.355 44.5715C420.881 44.5715 428.441 47.6457 434.032 53.794C439.624 59.9422 442.42 68.2382 442.42 78.6819V78.8616C442.42 81.623 440.181 83.8616 437.42 83.8616H395.838C395.315 83.8616 394.89 84.2858 394.89 84.8091V84.8091C394.89 90.3678 396.485 94.8527 399.674 98.2637C402.864 101.633 407.047 103.317 412.225 103.317C415.952 103.317 419.163 102.496 421.855 100.854C423.426 99.8706 424.694 98.6869 425.658 97.3025Z" fill="white"/>
<path d="M338.42 117.572C335.658 117.572 333.42 115.333 333.42 112.572V27.5715C333.42 24.8101 335.658 22.5715 338.42 22.5715H344.42C347.181 22.5715 349.42 24.8101 349.42 27.5715V112.572C349.42 115.333 347.181 117.572 344.42 117.572H338.42Z" fill="white"/>
<path d="M272.779 38.5715C272.779 35.8101 275.017 33.5715 277.779 33.5715H283.418C286.18 33.5715 288.418 35.8101 288.418 38.5715V43.8443C288.418 46.6057 290.657 48.8443 293.418 48.8443H296.42C299.181 48.8443 301.42 51.0828 301.42 53.8443V55.9247C301.42 58.6862 299.181 60.9247 296.42 60.9247H293.418C290.657 60.9247 288.418 63.1633 288.418 65.9247V96.9784C288.418 102.528 291.182 105.303 296.709 105.303V105.303C299.185 105.303 301.357 107.176 301.357 109.652V112.932C301.357 115.277 299.719 117.3 297.379 117.451C296.128 117.531 294.711 117.572 293.129 117.572C285.843 117.572 280.63 116.153 277.489 113.315C274.349 110.436 272.779 105.7 272.779 99.1066V65.6041C272.779 63.0198 270.684 60.9247 268.099 60.9247V60.9247C265.515 60.9247 263.42 58.8297 263.42 56.2454V53.5236C263.42 50.9393 265.515 48.8443 268.099 48.8443V48.8443C270.684 48.8443 272.779 46.7492 272.779 44.1649V38.5715Z" fill="white"/>
<path d="M205.355 59.6534C200.84 59.6534 197.071 61.1688 194.047 64.1996C192.2 66.0262 190.855 68.2014 190.012 70.7255C189.096 73.4719 191.472 75.9701 194.367 75.9701H216.026C218.854 75.9701 221.21 73.5872 220.437 70.8673C219.693 68.2504 218.414 66.0071 216.6 64.1374C213.701 61.148 209.952 59.6534 205.355 59.6534ZM219.644 99.5806C220.9 97.8114 222.731 96.3349 224.9 96.3349H229.949C233.021 96.3349 235.412 99.1244 234.189 101.942C232.534 105.756 229.819 109.015 226.044 111.717C220.535 115.62 213.825 117.572 205.914 117.572C195.89 117.572 187.958 114.458 182.118 108.23C176.319 102.002 173.42 93.5324 173.42 82.8206C173.42 72.1089 176.299 63.5561 182.056 57.1623C187.855 50.7684 195.621 47.5715 205.355 47.5715C214.881 47.5715 222.441 50.6024 228.032 56.6641C233.624 62.7257 236.42 70.9049 236.42 81.2014V81.3082C236.42 84.0696 234.181 86.3082 231.42 86.3082H189.824C189.309 86.3082 188.89 86.7264 188.89 87.2424V87.2424C188.89 92.7228 190.485 97.1445 193.674 100.507C196.864 103.829 201.047 105.49 206.225 105.49C209.952 105.49 213.163 104.68 215.855 103.061C217.418 102.097 218.681 100.937 219.644 99.5806Z" fill="white"/>
<path d="M72.5146 107.841C72.5146 111.707 69.3806 114.841 65.5146 114.841H61.2012C57.3352 114.841 54.2012 111.707 54.2012 107.841V17C54.2012 13.134 57.3352 10 61.2012 10H67.0813C69.3376 10 71.4556 11.0876 72.7703 12.9214L123.205 83.2712C123.287 83.3858 123.42 83.4538 123.561 83.4538V83.4538C123.802 83.4538 123.998 83.258 123.998 83.0164V17C123.998 13.134 127.132 10 130.998 10H135.238C139.104 10 142.238 13.134 142.238 17V107.841C142.238 111.707 139.104 114.841 135.238 114.841H129.504C127.248 114.841 125.131 113.753 123.816 111.92L73.3074 41.4966C73.2252 41.3821 73.0929 41.3141 72.952 41.3141V41.3141C72.7104 41.3141 72.5146 41.5099 72.5146 41.7515V107.841Z" fill="white"/>
<path d="M151.381 31.1065C149.502 31.404 149.108 34.7415 150.699 36.0043C151.052 36.2848 151.443 36.4007 151.863 36.3677C160.618 35.6802 166.031 36.5015 166.074 39.179C166.117 41.999 139.2 54.9474 101.308 67.2092C101.27 67.2194 101.238 67.2286 101.206 67.2412C63.3126 79.5029 32.5072 85.2303 29.9613 83.2219C27.6101 81.375 30.3934 77.9813 36.7316 73.8284C37.4286 73.3718 37.8431 72.4871 37.8623 71.5176C37.9021 69.5045 36.2787 67.7201 34.7612 68.487C17.6146 77.1524 7.97088 84.9152 10.3605 89.355C16.0582 99.9453 58.3915 93.345 106.778 77.8049C106.81 77.7952 106.842 77.783 106.874 77.7733C106.939 77.7515 107.003 77.7331 107.068 77.7147C155.346 61.9753 191.18 43.283 185.477 32.6936C183.18 28.4172 170.204 28.1248 151.381 31.1065Z" fill="white"/>
</svg>
