<svg width="34" height="32" viewBox="0 0 34 32" fill="none" xmlns="http://www.w3.org/2000/svg">
<path fill-rule="evenodd" clip-rule="evenodd" d="M17.2501 4.00004C15.4267 4.00004 13.6781 4.70242 12.3887 5.95266C11.0994 7.2029 10.3751 8.8986 10.3751 10.6667C10.3751 15.5298 9.29857 18.7539 8.14471 20.8052C8.04008 20.9912 7.93505 21.1671 7.83043 21.3334H26.6698C26.5652 21.1671 26.4601 20.9912 26.3555 20.8052C25.2016 18.7539 24.1251 15.5298 24.1251 10.6667C24.1251 8.8986 23.4008 7.2029 22.1115 5.95266C20.8222 4.70242 19.0735 4.00004 17.2501 4.00004ZM30.4038 21.5678C30.4028 21.5671 30.4015 21.5662 30.3999 21.565C30.3893 21.5573 30.3647 21.5392 30.3281 21.5096C30.2549 21.4505 30.1334 21.3455 29.9788 21.1872C29.6702 20.8714 29.2259 20.3393 28.7697 19.5282C27.8611 17.9129 26.8751 15.1369 26.8751 10.6667C26.8751 8.19135 25.861 5.81738 24.056 4.06704C22.251 2.3167 19.8028 1.33337 17.2501 1.33337C14.6974 1.33337 12.2492 2.3167 10.4442 4.06704C8.63917 5.81738 7.62511 8.19135 7.62511 10.6667C7.62511 15.1369 6.63914 17.9129 5.7305 19.5282C5.27428 20.3393 4.83004 20.8714 4.52145 21.1872C4.3668 21.3455 4.24527 21.4505 4.1721 21.5096C4.1355 21.5392 4.11095 21.5573 4.10036 21.565C4.09871 21.5662 4.0974 21.5671 4.09643 21.5678C3.60351 21.8961 3.38538 22.4967 3.55911 23.0531C3.73469 23.6154 4.26919 24 4.87511 24H29.6251C30.231 24 30.7655 23.6154 30.9411 23.0531C31.1148 22.4967 30.8967 21.8961 30.4038 21.5678ZM4.11033 21.5586C4.11044 21.5586 4.11055 21.5585 4.11065 21.5584C4.11065 21.5584 4.11064 21.5584 4.11064 21.5584L4.11033 21.5586Z" fill="white"/>
<path fill-rule="evenodd" clip-rule="evenodd" d="M14.2499 26.8316C14.9154 26.4768 15.7514 26.7123 16.1173 27.3576C16.2288 27.5543 16.3927 27.7183 16.5919 27.8325C16.7912 27.9468 17.0184 28.0071 17.2499 28.0071C17.4813 28.0071 17.7085 27.9468 17.9078 27.8325C18.107 27.7183 18.271 27.5543 18.3825 27.3576C18.7483 26.7123 19.5844 26.4768 20.2498 26.8316C20.9153 27.1864 21.1581 27.9971 20.7923 28.6423C20.4435 29.2575 19.9307 29.7705 19.3076 30.1279C18.6845 30.4852 17.9738 30.6737 17.2499 30.6737C16.5259 30.6737 15.8153 30.4852 15.1921 30.1279C14.569 29.7705 14.0563 29.2575 13.7075 28.6423C13.3416 27.9971 13.5845 27.1864 14.2499 26.8316Z" fill="white"/>
</svg>
